<svg width="100%" height="100%" viewBox="0 0 80 60"><g fill="none" fill-rule="evenodd" transform="translate(7 8)"><path stroke="#96DB0B" stroke-linecap="round" stroke-linejoin="round" stroke-width="1.467" d="M34.835 13.193l.615-2.955A7.333 7.333 0 0 1 42.63 4.4h11.637"></path><path stroke="#FA0" stroke-linecap="round" stroke-linejoin="round" stroke-width="1.467" d="M34.842 30.844l.608 2.918a7.333 7.333 0 0 0 7.18 5.838h11.637"></path><path stroke="#2BD9D9" stroke-linecap="round" stroke-linejoin="round" stroke-width="1.467" d="M31.518 13.11l-.43-2.582A7.333 7.333 0 0 0 23.854 4.4H12.467"></path><path stroke="#D01F2E" stroke-linecap="round" stroke-linejoin="round" stroke-width="1.467" d="M31.493 31.044l-.405 2.428a7.333 7.333 0 0 1-7.234 6.128H12.467"></path><path stroke="#FFD426" stroke-linecap="round" stroke-linejoin="round" stroke-width="1.467" d="M42.088 22H63.8"></path><path stroke="#A179F2" stroke-linecap="round" stroke-linejoin="round" stroke-width="1.467" d="M2.2 22h21"></path><rect width="10" height="4" x="28" y="20" fill="#3D474D" rx="2"></rect><rect width="15" height="8.8" x="41.8" fill="#96DB0B" rx="4.4"></rect><rect width="15" height="9" x="10" fill="#2BD9D9" rx="4.5"></rect><rect width="15" height="9" x="51.333" y="17.6" fill="#FFD426" rx="4.5"></rect><rect width="15" height="9" y="17.6" fill="#A179F2" rx="4.5"></rect><rect width="14.667" height="8.8" x="41.8" y="35.2" fill="#FA0" rx="4.4"></rect><rect width="15" height="9" x="9" y="35" fill="#D01F2E" rx="4.5"></rect></g></svg>