<svg width="100%" height="100%" xmlns="http://www.w3.org/2000/svg" viewBox="0 0 80 60">
  <g fill="none" fill-rule="evenodd">
    <path d="m41.845 21.143.605-2.905a7.333 7.333 0 0 1 7.18-5.838h11.637" stroke="#4070FF" stroke-width="1.467" stroke-linecap="round" stroke-linejoin="round"/>
    <path d="m41.846 38.863.604 2.9a7.333 7.333 0 0 0 7.18 5.837h11.637" stroke="#F7578C" stroke-width="1.467" stroke-linecap="round" stroke-linejoin="round"/>
    <path d="m38.516 21.097-.428-2.57a7.333 7.333 0 0 0-7.234-6.127H19.467h0" stroke="#FFD426" stroke-width="1.467" stroke-linecap="round" stroke-linejoin="round"/>
    <path d="m38.518 38.891-.43 2.581a7.333 7.333 0 0 1-7.234 6.128H19.467h0" stroke="#D01F2E" stroke-width="1.467" stroke-linecap="round" stroke-linejoin="round"/>
    <path stroke="#A179F2" stroke-width="1.467" stroke-linecap="round" stroke-linejoin="round" d="M49.002 30H70.8"/>
    <path stroke="#FA0" stroke-width="1.467" stroke-linecap="round" stroke-linejoin="round" d="M9.2 30H31"/>
    <path fill="#3D474D" d="M35 28h10v4H35z"/>
    <path fill="#4070FF" d="M48.8 8h15v8.8h-15z"/>
    <path fill="#FFD426" d="M17 8h15v9H17z"/>
    <path fill="#A179F2" d="M58.333 25.6h15v9h-15z"/>
    <path fill="#FA0" d="M7 25.6h15v9H7z"/>
    <path fill="#F7578C" d="M48.8 43.2h14.667V52H48.8z"/>
    <path fill="#D01F2E" d="M16 43h15v9H16z"/>
  </g>
</svg>
