<svg width="100%" height="100%" xmlns="http://www.w3.org/2000/svg" xmlns:xlink="http://www.w3.org/1999/xlink" viewBox="0 0 80 60">
  <defs>
    <rect id="a" x="0" y="23" width="14" height="6" rx="1"/>
    <rect id="b" x="39" y="23" width="14" height="6" rx="1"/>
    <rect id="c" x="19" y="23" width="14" height="6" rx="1"/>
  </defs>
  <g fill="none" fill-rule="evenodd">
    <rect fill="#B3E0BC" x="55" y="7" width="11" height="4" rx="2"/>
    <rect fill="#B3E0BC" x="55" y="13" width="11" height="4" rx="2"/>
    <path d="M48 12c2-2 4.333-3 7-3M48 12c2 2 4.333 3 7 3" stroke="#B3E0BC" stroke-linecap="round"/>
    <g stroke-linecap="round" stroke-linejoin="round">
      <path stroke="#FACD7F" d="M49.5 21.5h21v10M49 21.5h21"/>
      <path stroke="#FEA254" d="M42.5 40v9"/>
      <path stroke="#FACD7F" d="M63.5 40v9"/>
      <path stroke="#FF7019" d="M22.5 40v9"/>
      <path stroke="#FE463E" d="M3.5 40v9"/>
      <path stroke="#FEA254" d="M29.5 21.5h20v10"/>
      <path stroke="#FE463E" d="M30.5 21.5h-20v10"/>
      <path stroke="#FF7019" d="M40.5 21.5h-11v10"/>
      <path stroke="#FEA254" d="M40.5 21.5h9v10"/>
    </g>
    <g transform="translate(3.5 9)">
      <g stroke-linecap="round">
        <use stroke="#DCE2E6" xlink:href="#a"/>
        <use stroke="#FE463E" xlink:href="#a"/>
      </g>
      <g stroke-linecap="round">
        <use stroke="#DCE2E6" xlink:href="#b"/>
        <use stroke="#FEA254" xlink:href="#b"/>
      </g>
      <g stroke-linecap="round">
        <use stroke="#DCE2E6" xlink:href="#c"/>
        <use stroke="#FF7019" xlink:href="#c"/>
      </g>
      <rect stroke="#FACD7F" stroke-linecap="round" x="60" y="23" width="14" height="6" rx="1"/>
      <path d="M42 33h8a1 1 0 0 1 0 2h-8a1 1 0 0 1 0-2Zm21 0h8a1 1 0 0 1 0 2h-8a1 1 0 0 1 0-2Zm-41 0h8a1 1 0 0 1 0 2h-8a1 1 0 0 1 0-2ZM3 33h8a1 1 0 0 1 0 2H3a1 1 0 0 1 0-2Zm39 6h8a1 1 0 0 1 0 2h-8a1 1 0 0 1 0-2Zm21 0h8a1 1 0 0 1 0 2h-8a1 1 0 0 1 0-2Zm-41 0h8a1 1 0 0 1 0 2h-8a1 1 0 0 1 0-2ZM3 39h8a1 1 0 0 1 0 2H3a1 1 0 0 1 0-2Z" fill="#8A9499"/>
      <rect fill="#3D474D" x="30.5" width="14" height="6" rx="3"/>
    </g>
  </g>
</svg>
