<svg width="100%" height="100%" xmlns="http://www.w3.org/2000/svg" viewBox="0 0 80 60">
  <g fill="none" fill-rule="evenodd">
    <path d="m41.837 21.18.613-2.942a7.333 7.333 0 0 1 7.18-5.838h11.637" stroke="#4070FF" stroke-width="1.467" stroke-linecap="round" stroke-linejoin="round"/>
    <path d="m41.846 38.863.604 2.9a7.333 7.333 0 0 0 7.18 5.837h11.637" stroke="#F7578C" stroke-width="1.467" stroke-linecap="round" stroke-linejoin="round"/>
    <path stroke="#A179F2" stroke-width="1.467" stroke-linecap="round" stroke-linejoin="round" d="M48.983 30H70.8"/>
    <rect fill="#3D474D" x="35" y="28" width="10" height="4" rx="2"/>
    <rect fill="#4070FF" x="48.8" y="8" width="15" height="8.8" rx="4.4"/>
    <rect fill="#A179F2" x="58.333" y="25.6" width="15" height="9" rx="4.5"/>
    <rect fill="#F7578C" x="48.8" y="43.2" width="14.667" height="8.8" rx="4.4"/>
    <g transform="matrix(-1 0 0 1 38.333 8)">
      <path d="m.001 13.164.61-2.926A7.333 7.333 0 0 1 7.79 4.4h11.636" stroke="#96DB0B" stroke-width="1.5" stroke-linecap="round" stroke-linejoin="round"/>
      <path d="M5.406 16.642c2.13-.522 6.716-.736 13.754-.642" stroke="#FFD426" stroke-width="1.5" stroke-linecap="round" stroke-linejoin="round"/>
      <path d="M5.28 27.496c2.134.54 6.76.764 13.88.674" stroke="#FA0" stroke-width="1.5" stroke-linecap="round" stroke-linejoin="round"/>
      <path d="m0 30.83.61 2.932A7.333 7.333 0 0 0 7.79 39.6h11.637" stroke="#D01F2E" stroke-width="1.5" stroke-linecap="round" stroke-linejoin="round"/>
      <rect fill="#96DB0B" x="6.96" width="15" height="8.8" rx="4.4"/>
      <rect fill="#FFD426" x="12.494" y="11" width="15" height="9" rx="4.5"/>
      <rect fill="#FA0" x="12.494" y="24" width="15" height="9" rx="4.5"/>
      <rect fill="#D01F2E" x="6.96" y="35.2" width="14.667" height="8.8" rx="4.4"/>
    </g>
  </g>
</svg>
