<svg width="100%" height="100%" xmlns="http://www.w3.org/2000/svg" viewBox="0 0 80 60">
  <g fill="none" fill-rule="evenodd">
    <path d="m10.836 21.189.614-2.951a7.333 7.333 0 0 1 7.18-5.838h11.637M10.84 38.839l.61 2.923A7.333 7.333 0 0 0 18.63 47.6h11.637M17.994 30H39.8M47.267 30l.859-4.152A7.333 7.333 0 0 1 55.307 20h3.96m-12 10 .859 4.152A7.333 7.333 0 0 0 55.307 40h3.96M43 30h17" stroke="#B2BBC0" stroke-width="1.5" stroke-linecap="round" stroke-linejoin="round"/>
    <rect fill="#D01F2E" x="4" y="28" width="10" height="4" rx="2"/>
    <rect fill="#3D474D" x="17.8" y="8" width="15" height="8.8" rx="3"/>
    <rect fill="#3D474D" x="27.333" y="25.6" width="15" height="9" rx="3"/>
    <rect fill="#3D474D" x="17.8" y="43.2" width="14.667" height="8.8" rx="3"/>
    <rect fill="#3ECB3D" x="59" y="17" width="15" height="6" rx="2"/>
    <rect fill="#FFAB00" x="59" y="27" width="15" height="6" rx="2"/>
    <rect fill="#8A9499" x="59" y="37" width="15" height="6" rx="2"/>
  </g>
</svg>
