<svg width="100%" height="100%" viewBox="0 0 104 93"><defs><path id="b35740029" d="M49.995 2.636C78.99 10.42 84.145 24.421 77.3 50.012 70.455 75.602 59 85.146 30.005 77.364 1.01 69.58-4.145 55.579 2.7 29.988 9.545 4.398 21-5.146 49.995 2.636z"></path><filter id="a35740029" width="125.1%" height="125.1%" x="-12.6%" y="-6.3%" filterUnits="objectBoundingBox"><feMorphology in="SourceAlpha" radius="2.5" result="shadowSpreadOuter1"></feMorphology><feOffset dy="5" in="shadowSpreadOuter1" result="shadowOffsetOuter1"></feOffset><feGaussianBlur in="shadowOffsetOuter1" result="shadowBlurOuter1" stdDeviation="5"></feGaussianBlur><feColorMatrix in="shadowBlurOuter1" values="0 0 0 0 0.633333333 0 0 0 0 0.475 0 0 0 0 0.95 0 0 0 1 0"></feColorMatrix></filter><path id="c35740029" d="M16 0c8.837 0 16 7.163 16 16s-7.163 16-16 16S0 24.837 0 16 7.163 0 16 0z"></path></defs><g fill="none" fill-rule="evenodd"><g transform="translate(5 3)"><use fill="#000" filter="url(#a35740029)" xlink:href="#b35740029"></use><use fill="#A179F2" xlink:href="#b35740029"></use><path fill="#FFF" d="M51.534 19.375c4.755 0 6.48.495 8.218 1.425a9.692 9.692 0 0 1 4.032 4.032c.93 1.738 1.424 3.462 1.424 8.217v13.902c0 4.755-.495 6.479-1.424 8.217a9.692 9.692 0 0 1-4.032 4.032c-1.739.93-3.463 1.425-8.218 1.425H28.466c-4.755 0-6.48-.495-8.218-1.425a9.692 9.692 0 0 1-4.032-4.032c-.93-1.738-1.424-3.462-1.424-8.217V33.049c0-4.755.495-6.479 1.424-8.217a9.692 9.692 0 0 1 4.032-4.032c1.739-.93 3.463-1.425 8.218-1.425h23.068zm8.871 8.619L43.543 42.983a5.333 5.333 0 0 1-7.086 0l-16.862-14.99c-.145.645-.22 1.494-.22 2.802v18.41c0 2.377.248 3.24.712 4.108a4.846 4.846 0 0 0 2.016 2.016c.87.465 1.732.713 4.109.713h27.576c2.377 0 3.24-.248 4.109-.713a4.846 4.846 0 0 0 2.016-2.016c.464-.869.712-1.731.712-4.108v-18.41c0-1.308-.075-2.157-.22-2.801zm-6.617-4.036H26.212c-2 0-2.927.175-3.689.508l16.591 14.747c.505.449 1.267.449 1.772 0l16.59-14.747c-.761-.333-1.689-.508-3.688-.508z"></path></g><g transform="translate(67)"><mask id="d35740029" fill="#fff"><use xlink:href="#c35740029"></use></mask><use fill="#FF4019" xlink:href="#c35740029"></use><path fill="#FFF" fill-rule="nonzero" d="M18.024 24V8.424h-2.398l-4.708 3.916 1.54 1.826 2.926-2.706V24z" mask="url(#d35740029)"></path></g></g></svg>
